<svg width="30" height="30" viewBox="0 0 30 30" fill="none" xmlns="http://www.w3.org/2000/svg">
<path d="M11.25 27.5H12.5V25H11.2637C10.8787 24.9925 7.49998 24.7838 7.49998 20C7.49998 17.5087 6.66873 15.9425 5.62248 15C6.66873 14.0575 7.49998 12.4913 7.49998 10C7.49998 5.21625 10.8787 5.0075 11.25 5H12.5V2.5H11.2475C9.08623 2.505 4.99998 4.08 4.99998 10C4.99998 13.5 2.90248 13.7375 2.48248 13.75L2.49998 16.25C2.60248 16.25 4.99998 16.2925 4.99998 20C4.99998 25.92 9.08623 27.495 11.25 27.5ZM27.5 13.75C27.3975 13.75 25 13.7075 25 10C25 4.08 20.9137 2.505 18.75 2.5H17.5V5H18.7362C19.1212 5.0075 22.5 5.21625 22.5 10C22.5 12.4913 23.3312 14.0575 24.3775 15C23.3312 15.9425 22.5 17.5087 22.5 20C22.5 24.7838 19.1212 24.9925 18.75 25H17.5V27.5H18.7525C20.9137 27.495 25 25.92 25 20C25 16.5 27.0975 16.2625 27.5175 16.25L27.5 13.75Z" fill="#8C5BBD"/>
</svg>
