<svg width="30" height="30" viewBox="0 0 30 30" fill="none" xmlns="http://www.w3.org/2000/svg">
<path d="M26.6667 3.33333H3.33335C2.89133 3.33333 2.4674 3.50893 2.15484 3.82149C1.84228 4.13405 1.66669 4.55797 1.66669 5V25C1.66669 25.442 1.84228 25.8659 2.15484 26.1785C2.4674 26.4911 2.89133 26.6667 3.33335 26.6667H26.6667C27.1087 26.6667 27.5326 26.4911 27.8452 26.1785C28.1578 25.8659 28.3334 25.442 28.3334 25V5C28.3334 4.55797 28.1578 4.13405 27.8452 3.82149C27.5326 3.50893 27.1087 3.33333 26.6667 3.33333ZM3.33335 25V5H26.6667V25H3.33335Z" fill="#8C5BBD"/>
<path d="M7.43335 11.6667C7.9278 11.6667 8.41115 11.52 8.82228 11.2453C9.2334 10.9706 9.55383 10.5802 9.74305 10.1234C9.93227 9.66656 9.98178 9.16389 9.88531 8.67894C9.78885 8.19399 9.55075 7.74853 9.20112 7.3989C8.85149 7.04927 8.40603 6.81117 7.92108 6.7147C7.43612 6.61824 6.93346 6.66775 6.47664 6.85697C6.01983 7.04619 5.62938 7.36662 5.35468 7.77774C5.07997 8.18886 4.93335 8.67221 4.93335 9.16667C4.93335 9.82971 5.19674 10.4656 5.66558 10.9344C6.13442 11.4033 6.77031 11.6667 7.43335 11.6667ZM7.43335 7.83333C7.69741 7.83168 7.95601 7.90848 8.17637 8.05398C8.39673 8.19948 8.56892 8.40714 8.67111 8.65062C8.77331 8.89411 8.80091 9.16245 8.7504 9.42164C8.6999 9.68083 8.57358 9.91918 8.38744 10.1065C8.20131 10.2938 7.96375 10.4216 7.70488 10.4737C7.44602 10.5259 7.1775 10.4999 6.93338 10.3993C6.68926 10.2986 6.48053 10.1277 6.33365 9.90828C6.18677 9.68884 6.10835 9.43073 6.10835 9.16667C6.11053 8.81593 6.25083 8.48018 6.49885 8.23216C6.74686 7.98415 7.08261 7.84385 7.43335 7.84167V7.83333Z" fill="#8C5BBD"/>
<path d="M18.9833 12.8083L14.4833 17.3083L11.15 13.975C10.9939 13.8198 10.7827 13.7327 10.5625 13.7327C10.3424 13.7327 10.1312 13.8198 9.97502 13.975L4.93335 19.0833V21.4417L10.5917 15.7833L13.3333 18.4833L10.2083 21.6083H12.5L19.5417 14.5667L25 20V17.65L20.1583 12.8083C20.0022 12.6531 19.791 12.566 19.5708 12.566C19.3507 12.566 19.1395 12.6531 18.9833 12.8083Z" fill="#8C5BBD"/>
</svg>
