<svg width="16" height="26" viewBox="0 0 16 26" fill="none" xmlns="http://www.w3.org/2000/svg">
<path d="M2.375 1.4375C2.375 1.18886 2.27623 0.950403 2.10041 0.774587C1.9246 0.598772 1.68614 0.5 1.4375 0.5C1.18886 0.5 0.950403 0.598772 0.774587 0.774587C0.598772 0.950403 0.5 1.18886 0.5 1.4375V5.1875C0.499913 5.72291 0.696192 6.23977 1.05166 6.64016C1.40713 7.04055 1.89709 7.29667 2.42875 7.36L1.15875 10.4913C0.906994 11.12 0.790143 11.7946 0.815768 12.4714C0.841392 13.1482 1.00892 13.8121 1.3075 14.42L6.295 24.3575C6.64875 25.065 7.29875 25.5 8 25.5C8.70125 25.5 9.35 25.065 9.70625 24.3587L14.6937 14.42C15.295 13.22 15.3512 11.7487 14.8412 10.4913L13.5713 7.36C14.1029 7.29667 14.5929 7.04055 14.9483 6.64016C15.3038 6.23977 15.5001 5.72291 15.5 5.1875V1.4375C15.5 1.18886 15.4012 0.950403 15.2254 0.774587C15.0496 0.598772 14.8111 0.5 14.5625 0.5C14.3139 0.5 14.0754 0.598772 13.8996 0.774587C13.7238 0.950403 13.625 1.18886 13.625 1.4375V5.1875C13.625 5.27038 13.5921 5.34987 13.5335 5.40847C13.4749 5.46708 13.3954 5.5 13.3125 5.5H2.6875C2.60462 5.5 2.52513 5.46708 2.46653 5.40847C2.40792 5.34987 2.375 5.27038 2.375 5.1875V1.4375ZM11.5538 7.375L13.1038 11.1962C13.4125 11.9587 13.375 12.8663 13.0163 13.5788L8.9375 21.7087V13.3737C9.29495 13.1674 9.57432 12.8488 9.73227 12.4675C9.89023 12.0862 9.91794 11.6634 9.81111 11.2647C9.70428 10.866 9.46889 10.5137 9.14143 10.2624C8.81397 10.0111 8.41275 9.87495 8 9.87495C7.58725 9.87495 7.18603 10.0111 6.85857 10.2624C6.53111 10.5137 6.29572 10.866 6.18889 11.2647C6.08206 11.6634 6.10977 12.0862 6.26773 12.4675C6.42568 12.8488 6.70505 13.1674 7.0625 13.3737V21.7087L2.9825 13.5788C2.80374 13.2093 2.70375 12.8067 2.6889 12.3966C2.67406 11.9864 2.74467 11.5777 2.89625 11.1962L4.44625 7.375H11.5538Z" fill="#8C5BBD"/>
</svg>
