<svg width="30" height="30" viewBox="0 0 30 30" fill="none" xmlns="http://www.w3.org/2000/svg">
<path d="M3.06753 9.92437C3.41914 9.57286 3.89597 9.3754 4.39315 9.3754C4.89034 9.3754 5.36716 9.57286 5.71878 9.92437L15 19.2056L24.2813 9.92437C24.6349 9.58283 25.1085 9.39383 25.6002 9.39811C26.0918 9.40238 26.562 9.59957 26.9097 9.94721C27.2573 10.2949 27.4545 10.7651 27.4588 11.2567C27.4631 11.7484 27.2741 12.222 26.9325 12.5756L16.3257 23.1825C15.974 23.534 15.4972 23.7315 15 23.7315C14.5028 23.7315 14.026 23.534 13.6744 23.1825L3.06753 12.5756C2.71602 12.224 2.51855 11.7472 2.51855 11.25C2.51855 10.7528 2.71602 10.276 3.06753 9.92437Z" fill="#8C5BBD"/>
</svg>
