<svg width="30" height="30" viewBox="0 0 30 30" fill="none" xmlns="http://www.w3.org/2000/svg">
<g clip-path="url(#clip0_38_95)">
<path d="M17.1 5.47249C16.4436 5.16152 15.7263 5.00021 15 5.00021C14.2736 5.00021 13.5564 5.16152 12.9 5.47249L0.714956 11.245C0.490687 11.3508 0.302954 11.5209 0.175634 11.7337C0.0483147 11.9465 -0.0128373 12.1923 -4.3859e-05 12.44V20.005C-4.3859e-05 20.3365 0.131652 20.6545 0.366073 20.8889C0.600493 21.1233 0.918435 21.255 1.24996 21.255C1.58148 21.255 1.89942 21.1233 2.13384 20.8889C2.36826 20.6545 2.49996 20.3365 2.49996 20.005V14.39L4.99996 15.63V22.505C4.99999 22.6694 5.03247 22.8322 5.09553 22.9841C5.15859 23.136 5.251 23.2739 5.36746 23.39L5.42996 23.45L5.57996 23.5875C6.36347 24.2857 7.21048 24.9093 8.10996 25.45C9.77996 26.455 12.1925 27.505 15 27.505C17.8075 27.505 20.22 26.455 21.8925 25.45C22.7919 24.9093 23.6389 24.2857 24.4225 23.5875L24.5725 23.45L24.63 23.39H24.635C24.7513 23.2734 24.8434 23.135 24.906 22.9827C24.9687 22.8304 25.0006 22.6672 25 22.5025V15.6275L29.305 13.4925C29.5154 13.3883 29.6922 13.2269 29.8152 13.0268C29.9381 12.8267 30.0022 12.5961 30.0002 12.3612C29.9981 12.1264 29.9299 11.8969 29.8034 11.699C29.6769 11.5012 29.4972 11.343 29.285 11.2425L17.1 5.46999V5.47249ZM17.18 19.51L22.5 16.87V21.95C21.9069 22.453 21.274 22.907 20.6075 23.3075C19.1575 24.1775 17.1925 25.005 15 25.005C12.8075 25.005 10.845 24.18 9.39246 23.3075C8.7259 22.907 8.09299 22.453 7.49996 21.95V16.87L12.82 19.51C14.195 20.19 15.805 20.19 17.18 19.51ZM16.03 7.73249L25.885 12.4L16.0675 17.27C15.7356 17.4344 15.3703 17.5199 15 17.5199C14.6296 17.5199 14.2643 17.4344 13.9325 17.27L4.11496 12.4L13.97 7.73249C14.2919 7.57991 14.6437 7.50077 15 7.50077C15.3562 7.50077 15.708 7.57991 16.03 7.73249ZM24.63 23.3925L24.6275 23.395L24.63 23.3925Z" fill="#8C5BBD"/>
</g>
<defs>
<clipPath id="clip0_38_95">
<rect width="30" height="30" fill="white"/>
</clipPath>
</defs>
</svg>
