<svg width="30" height="22" viewBox="0 0 30 22" fill="none" xmlns="http://www.w3.org/2000/svg">
<path d="M28.0078 3.35656C27.4875 2.12844 25.5413 0.21875 22.4452 0.21875C22.0716 0.21875 21.6877 0.247344 21.3033 0.303594C20.5275 0.417031 19.822 0.77375 19.2558 1.06016C18.952 1.21391 18.5738 1.40516 18.4383 1.40516C14.3203 1.23219 13.463 2.13359 12.6924 2.92484C12.3347 3.29234 12.0263 3.60922 11.3559 3.80563C10.7227 3.99078 7.50892 5.03797 6.40079 7.51766C6.34735 7.63766 6.06142 7.84953 5.78532 8.05391C5.28517 8.42422 4.61017 8.92719 3.94126 9.75734C1.86235 11.773 0.416259 16.3348 1.11517 19.0616C1.46345 20.4228 2.3011 21.2248 3.5386 21.3833C5.6686 21.6542 7.47001 21.7812 9.20813 21.7812C10.3715 21.7806 11.5341 21.7237 12.6919 21.6106C13.3111 21.5511 13.8563 21.3659 14.3161 21.0645C15.3384 20.8091 16.2516 19.8359 17.4642 18.5375C18.6469 17.2714 20.1188 15.6955 22.2061 14.2531C22.5633 14.0066 22.913 13.768 23.2538 13.5359C27.6356 10.5477 30.803 8.38813 28.0078 3.35656M7.22579 7.84344C7.32188 7.80594 7.43485 7.75531 7.56751 7.68922C9.53579 7.30297 11.1849 6.00781 14.6733 8.07453C17.1811 10.1497 17.67 11.8658 17.782 10.5748C18.1706 8.79734 14.722 5.68719 11.5031 5.94078C10.0753 5.82594 8.69626 6.38703 7.8047 6.94156C9.03048 5.47297 11.1281 4.79047 11.6039 4.65172C12.0924 4.50875 12.443 4.30859 12.7266 4.09156C12.8166 4.06437 12.9267 4.02266 13.0805 3.94531C14.5669 3.65281 15.8138 2.67547 18.4481 4.23641C20.3424 5.80344 20.7113 7.10047 20.7966 6.12547C21.0895 4.78203 18.4842 2.43312 16.0542 2.62391C15.2344 2.55781 14.4394 2.78891 13.808 3.08656C14.3808 2.62531 15.2503 2.26531 17.4417 2.26531C17.7384 2.26531 18.0572 2.27234 18.4392 2.28734C18.7852 2.28734 19.17 2.09281 19.6566 1.84672L19.6814 1.83453C20.6766 1.69016 21.6352 1.28375 23.2795 2.52031C24.5353 3.81359 24.7064 4.78484 24.8409 4.08406C25.1545 3.13438 23.4422 1.21625 21.6647 1.15438L21.6497 1.1525C21.9178 1.12156 22.1855 1.10094 22.4456 1.10094C25.2356 1.10094 26.8566 2.86766 27.2049 3.72312C28.4639 6.81641 27.1664 7.54531 23.6986 9.49297C21.5916 10.6766 18.7824 12.2577 15.6225 15.0294C15.3431 14.0195 14.9262 13.0528 14.3836 12.1564C12.9047 9.70578 10.4395 8.18375 7.95095 8.18375C7.59845 8.18375 7.25157 8.2175 6.90985 8.2775C7.03782 8.15187 7.14423 8.02344 7.20938 7.87719C7.2136 7.86453 7.22063 7.85469 7.22579 7.84344M2.0311 18.8286C1.37767 16.2791 2.99579 11.5334 5.01563 10.0742C5.87579 9.45266 6.89063 9.125 7.95001 9.125C10.1081 9.125 12.2634 10.4722 13.5722 12.6406C14.9902 14.9905 15.4158 17.7481 14.6077 19.348C14.2088 20.1373 13.5338 20.5831 12.6005 20.6731C9.67454 20.9539 7.12595 20.8906 3.65813 20.4486C2.81485 20.3408 2.28282 19.8111 2.0311 18.8286M22.7545 12.808C22.4124 13.0414 22.0613 13.2814 21.7027 13.5284C19.5366 15.0247 18.0286 16.6395 16.8169 17.9366C16.4608 18.3231 16.0968 18.7022 15.7252 19.0737C15.9924 18.1855 16.0252 17.1303 15.84 16.0175C19.0814 13.1033 21.9802 11.4687 24.1322 10.2598C25.9777 9.22344 27.4191 8.40781 28.1063 7.26875C27.7988 9.35891 25.6744 10.8167 22.7545 12.808Z" fill="white"/>
</svg>
