<svg width="31" height="31" viewBox="0 0 31 31" fill="none" xmlns="http://www.w3.org/2000/svg">
<path d="M30 14.9988V14.9913C30 10.5525 28.0675 6.56628 24.9988 3.82503L24.9838 3.81253C24.9459 3.77167 24.9035 3.73519 24.8575 3.70378L24.855 3.70253C22.1295 1.30944 18.6245 -0.00703962 14.9975 2.83125e-05C11.2075 2.83125e-05 7.7475 1.40753 5.11 3.73003L5.12625 3.71628C5.09446 3.74039 5.06515 3.76761 5.03875 3.79753V3.79878C3.45316 5.20277 2.184 6.92764 1.31533 8.85914C0.446657 10.7906 -0.00168361 12.8847 4.75083e-06 15.0025C4.75083e-06 19.44 1.93 23.4263 4.99625 26.1688L5.01125 26.1813C5.05096 26.2263 5.09538 26.267 5.14375 26.3025L5.14626 26.3038C7.87105 28.6933 11.3734 30.0079 14.9975 30.0013C18.6386 30.0069 22.1559 28.6802 24.8863 26.2713L24.87 26.285C26.4831 24.8826 27.7761 23.1501 28.6616 21.2046C29.5471 19.2592 30.0044 17.1463 30.0025 15.0088V15L30 14.9988ZM24.4225 24.755C23.6795 24.154 22.8804 23.6257 22.0363 23.1775L21.955 23.1375C22.7213 20.9288 23.1825 18.3825 23.2263 15.7338V15.7138H28.5525C28.3729 19.1405 26.8979 22.371 24.4263 24.7513L24.4225 24.755ZM15.715 22.8738C17.3188 22.96 18.8175 23.3125 20.2 23.8863L20.11 23.8538C19.0025 26.3788 17.4438 28.1138 15.715 28.495V22.8738ZM15.715 21.4438V15.7138H21.8C21.7517 18.0866 21.3403 20.438 20.58 22.6863L20.6288 22.5225C19.0768 21.8847 17.4262 21.5201 15.75 21.445L15.7163 21.4438H15.715ZM15.715 14.2838V8.55378C17.4365 8.47521 19.1312 8.09837 20.7238 7.44003L20.625 7.47628C21.3188 9.50003 21.745 11.8325 21.8 14.2575V14.2838H15.715ZM15.715 7.12378V1.50503C17.4438 1.88628 19.0025 3.61378 20.11 6.14628C18.8175 6.68378 17.3188 7.03503 15.7513 7.12253L15.715 7.12378ZM19.2825 2.12378C20.7554 2.61507 22.133 3.35585 23.355 4.31378L23.3263 4.29128C22.7725 4.72628 22.1513 5.13628 21.4963 5.49253L21.4263 5.52753C20.897 4.27844 20.1693 3.12312 19.2713 2.10628L19.2825 2.12003V2.12378ZM14.2825 1.50878V7.12378C12.7406 7.04512 11.2236 6.70266 9.7975 6.11128L9.8875 6.14378C11 3.61878 12.5563 1.88503 14.285 1.50378L14.2825 1.50878ZM8.5725 5.52378C7.89491 5.15922 7.24929 4.73815 6.6425 4.26503L6.6725 4.28753C7.85892 3.35772 9.1934 2.63428 10.62 2.14753L10.715 2.11878C9.84052 3.10807 9.12798 4.22942 8.60375 5.44128L8.5725 5.52253V5.52378ZM14.285 8.55253V14.2825H8.2C8.255 11.8313 8.68125 9.49878 9.42375 7.31128L9.375 7.47503C10.9263 8.11187 12.576 8.47597 14.2513 8.55128L14.285 8.55253ZM14.285 15.7125V21.4425C12.5635 21.5211 10.8688 21.8979 9.27625 22.5563L9.375 22.52C8.68125 20.4975 8.255 18.1638 8.2 15.7388V15.7125H14.285ZM14.285 22.8725V28.4913C12.5563 28.11 10.9975 26.3825 9.89001 23.85C11.1825 23.3125 12.6813 22.9625 14.2488 22.875L14.285 22.8738V22.8725ZM10.7225 27.8725C9.24994 27.3827 7.87243 26.6436 6.65 25.6875L6.68 25.71C7.23375 25.275 7.85501 24.865 8.51 24.5088L8.58 24.4738C9.10486 25.7234 9.83257 26.8777 10.7338 27.89L10.7225 27.8775V27.8725ZM21.4275 24.4725C22.1525 24.8663 22.7738 25.275 23.3575 25.7313L23.3275 25.7088C22.1411 26.6386 20.8066 27.362 19.38 27.8488L19.285 27.8775C20.1595 26.8887 20.872 25.7678 21.3963 24.5563L21.4275 24.475V24.4725ZM28.5525 14.2838H23.2263C23.1879 11.6975 22.7416 9.13341 21.9038 6.68628L21.955 6.85878C22.838 6.39386 23.674 5.84463 24.4513 5.21878L24.4213 5.24128C26.8878 7.61257 28.3633 10.8311 28.55 14.2475L28.5513 14.2825L28.5525 14.2838ZM5.5775 5.24253C6.2975 5.82753 7.10625 6.36378 7.96375 6.82003L8.045 6.86003C7.27875 9.06878 6.8175 11.615 6.77376 14.2638V14.2838H1.44625C1.62587 10.857 3.10082 7.62654 5.5725 5.24628L5.57625 5.24253H5.5775ZM1.4475 15.7138H6.77376C6.81207 18.3001 7.2584 20.8641 8.09626 23.3113L8.045 23.1388C7.10626 23.6375 6.29875 24.1738 5.54875 24.7788L5.57875 24.7563C3.11218 22.385 1.63671 19.1665 1.45 15.75L1.44875 15.715L1.4475 15.7138Z" fill="#8C5BBD"/>
</svg>
