<svg width="30" height="31" viewBox="0 0 30 31" fill="none" xmlns="http://www.w3.org/2000/svg">
<path d="M15 1.93015C13.5166 1.93015 12.0666 2.38295 10.8332 3.2313C9.59985 4.07965 8.63856 5.28544 8.0709 6.69619C7.50325 8.10695 7.35472 9.6593 7.64411 11.1569C7.9335 12.6546 8.6478 14.0303 9.6967 15.11C10.7456 16.1898 12.082 16.9251 13.5368 17.223C14.9917 17.5209 16.4997 17.368 17.8701 16.7836C19.2406 16.1993 20.4119 15.2097 21.236 13.9401C22.0601 12.6704 22.5 11.1777 22.5 9.65073C22.4975 7.60389 21.7065 5.64161 20.3006 4.19427C18.8946 2.74694 16.9884 1.9327 15 1.93015ZM20.5406 8.68566H18.255C18.2082 7.2534 17.9584 5.83585 17.5134 4.47794C18.3032 4.88578 18.9887 5.47913 19.5146 6.21008C20.0405 6.94102 20.3919 7.78906 20.5406 8.68566ZM15.0206 15.4402H15.0131C14.6569 15.3244 13.7859 13.6828 13.6266 10.6158H16.3734C16.2141 13.6809 15.3478 15.3225 15.0206 15.4402ZM13.6266 8.68566C13.7859 5.62059 14.6522 3.979 14.9794 3.86126H14.9869C15.3431 3.97707 16.2141 5.61866 16.3734 8.68566H13.6266ZM12.4875 4.47794C12.0423 5.8358 11.7921 7.25335 11.745 8.68566H9.45938C9.60815 7.78896 9.95976 6.94087 10.4858 6.20992C11.0118 5.47897 11.6975 4.88566 12.4875 4.47794ZM9.45938 10.6158H11.7441C11.7912 12.0481 12.0413 13.4657 12.4866 14.8235C11.6968 14.4157 11.0113 13.8223 10.4854 13.0914C9.95952 12.3604 9.60805 11.5124 9.45938 10.6158ZM17.5125 14.8235C17.9577 13.4657 18.2079 12.0481 18.255 10.6158H20.5406C20.3919 11.5125 20.0402 12.3606 19.5142 13.0915C18.9882 13.8225 18.3025 14.4158 17.5125 14.8235ZM26.25 28.9522H3.75C3.25287 28.9517 2.77625 28.7482 2.42472 28.3863C2.0732 28.0245 1.8755 27.5338 1.875 27.0221V21.2316C1.8755 20.7199 2.0732 20.2292 2.42472 19.8674C2.77625 19.5055 3.25287 19.302 3.75 19.3015H26.25C26.7471 19.302 27.2238 19.5055 27.5753 19.8674C27.9268 20.2292 28.1245 20.7199 28.125 21.2316V27.0221C28.1245 27.5338 27.9268 28.0245 27.5753 28.3863C27.2238 28.7482 26.7471 28.9517 26.25 28.9522ZM3.75 21.2316V27.0221H26.25V21.2316H3.75Z" fill="#8C5BBD"/>
<path d="M6.5625 25.0919C7.08027 25.0919 7.5 24.6598 7.5 24.1268C7.5 23.5938 7.08027 23.1618 6.5625 23.1618C6.04473 23.1618 5.625 23.5938 5.625 24.1268C5.625 24.6598 6.04473 25.0919 6.5625 25.0919Z" fill="black"/>
</svg>
